<svg width="20" height="20" viewBox="0 0 20 20" fill="none" xmlns="http://www.w3.org/2000/svg">
<path d="M15 9.28544V7.14258C15 5.8165 14.4733 4.54473 13.5356 3.60704C12.5979 2.66936 11.3261 2.14258 10 2.14258C8.67395 2.14258 7.40218 2.66936 6.4645 3.60704C5.52682 4.54473 5.00003 5.8165 5.00003 7.14258V9.28544C5.00003 11.6426 2.85718 12.214 2.85718 13.5711C2.85718 14.7854 5.64289 15.714 10 15.714C14.3572 15.714 17.1429 14.7854 17.1429 13.5711C17.1429 12.214 15 11.6426 15 9.28544Z" stroke="#171A1F" stroke-width="1.71429" stroke-miterlimit="10" stroke-linecap="square"/>
<path d="M9.99998 17.1427C9.27784 17.1427 8.59926 17.1184 7.96069 17.0713C8.09683 17.5056 8.36805 17.885 8.73485 18.1544C9.10164 18.4239 9.54487 18.5691 9.99998 18.5691C10.4551 18.5691 10.8983 18.4239 11.2651 18.1544C11.6319 17.885 11.9031 17.5056 12.0393 17.0713C11.4007 17.1184 10.7221 17.1427 9.99998 17.1427Z" fill="#171A1F"/>
</svg>
