<svg width="20" height="20" viewBox="0 0 20 20" fill="none" xmlns="http://www.w3.org/2000/svg">
<path d="M15 9.28592V7.14307C15 5.81698 14.4733 4.54521 13.5356 3.60753C12.5979 2.66985 11.3261 2.14307 10 2.14307C8.67395 2.14307 7.40218 2.66985 6.4645 3.60753C5.52682 4.54521 5.00003 5.81698 5.00003 7.14307V9.28592C5.00003 11.6431 2.85718 12.2145 2.85718 13.5716C2.85718 14.7859 5.64289 15.7145 10 15.7145C14.3572 15.7145 17.1429 14.7859 17.1429 13.5716C17.1429 12.2145 15 11.6431 15 9.28592Z" stroke="#565D6D" stroke-width="1.71429" stroke-miterlimit="10" stroke-linecap="square"/>
<path d="M9.99998 17.1427C9.27784 17.1427 8.59926 17.1184 7.96069 17.0713C8.09683 17.5056 8.36805 17.885 8.73485 18.1544C9.10164 18.4239 9.54487 18.5691 9.99998 18.5691C10.4551 18.5691 10.8983 18.4239 11.2651 18.1544C11.6319 17.885 11.9031 17.5056 12.0393 17.0713C11.4007 17.1184 10.7221 17.1427 9.99998 17.1427Z" fill="#565D6D"/>
</svg>
