<svg width="20" height="20" viewBox="0 0 20 20" fill="none" xmlns="http://www.w3.org/2000/svg">
<path d="M6.42857 10H5V10.7143H6.42857V10Z" stroke="#171A1F" stroke-width="1.71429" stroke-miterlimit="10" stroke-linecap="square"/>
<path d="M10.7143 10H9.28571V10.7143H10.7143V10Z" stroke="#171A1F" stroke-width="1.71429" stroke-miterlimit="10" stroke-linecap="square"/>
<path d="M6.42857 13.5713H5V14.2856H6.42857V13.5713Z" stroke="#171A1F" stroke-width="1.71429" stroke-miterlimit="10" stroke-linecap="square"/>
<path d="M10.7143 13.5713H9.28571V14.2856H10.7143V13.5713Z" stroke="#171A1F" stroke-width="1.71429" stroke-miterlimit="10" stroke-linecap="square"/>
<path d="M15 10H13.5714V10.7143H15V10Z" stroke="#171A1F" stroke-width="1.71429" stroke-miterlimit="10" stroke-linecap="square"/>
<path d="M6.42857 10H5V10.7143H6.42857V10Z" fill="#171A1F"/>
<path d="M10.7143 10H9.28571V10.7143H10.7143V10Z" fill="#171A1F"/>
<path d="M6.42857 13.5713H5V14.2856H6.42857V13.5713Z" fill="#171A1F"/>
<path d="M10.7143 13.5713H9.28571V14.2856H10.7143V13.5713Z" fill="#171A1F"/>
<path d="M15 10H13.5714V10.7143H15V10Z" fill="#171A1F"/>
<path d="M17.8571 4.28613L2.14285 4.28613L2.14285 17.1433L17.8571 17.1433L17.8571 4.28613Z" stroke="#171A1F" stroke-width="1.71429" stroke-miterlimit="10" stroke-linecap="square"/>
<path d="M13.5714 4.28544V2.14258" stroke="#171A1F" stroke-width="1.71429" stroke-miterlimit="10" stroke-linecap="square"/>
<path d="M6.42856 4.28544L6.42856 2.14258" stroke="#171A1F" stroke-width="1.71429" stroke-miterlimit="10" stroke-linecap="square"/>
<path d="M2.14285 7.14258L17.8571 7.14258" stroke="#171A1F" stroke-width="1.71429" stroke-miterlimit="10"/>
</svg>
