<svg width="20" height="20" viewBox="0 0 20 20" fill="none" xmlns="http://www.w3.org/2000/svg">
<path d="M8.57139 13.5811L4.28568 13.5811C3.07139 13.5811 2.14282 14.5096 2.14282 15.7239L2.14282 17.8668H10.7143L10.7143 15.7239C10.7143 14.5096 9.78568 13.5811 8.57139 13.5811Z" stroke="#565D6D" stroke-width="1.71429" stroke-miterlimit="10" stroke-linecap="square"/>
<path d="M6.42862 11.4385C5.21434 11.4385 4.28577 10.5099 4.28577 9.29562V8.58133C4.28577 7.36705 5.21434 6.43848 6.42862 6.43848C7.64291 6.43848 8.57148 7.36705 8.57148 8.58133V9.29562C8.57148 10.5099 7.64291 11.4385 6.42862 11.4385Z" stroke="#565D6D" stroke-width="1.71429" stroke-miterlimit="10" stroke-linecap="square"/>
<path d="M10.7142 2.15283L10.7142 9.29569L13.5714 7.15283L17.8571 7.15283V2.15283L10.7142 2.15283Z" stroke="#565D6D" stroke-width="1.71429" stroke-miterlimit="10" stroke-linecap="square"/>
</svg>
