<svg width="20" height="21" viewBox="0 0 20 21" fill="none" xmlns="http://www.w3.org/2000/svg">
<path d="M16 13.4486C16.5692 12.916 17.0266 12.2753 17.3455 11.564C17.6644 10.8527 17.8383 10.085 17.8572 9.30571C17.8572 5.73428 14.3572 2.87714 10 2.87714C5.64288 2.87714 2.14288 5.73428 2.14288 9.30571C2.14288 12.8771 5.64288 15.7343 10 15.7343C10.7482 15.7495 11.4945 15.6532 12.2143 15.4486L16.4286 17.1629L16 13.4486Z" stroke="#171A1F" stroke-width="1.71429" stroke-miterlimit="10" stroke-linecap="square"/>
<path d="M10 5.73428L10 10.02" stroke="#171A1F" stroke-width="1.71429" stroke-miterlimit="10" stroke-linecap="square"/>
<path d="M9.99999 13.5914C10.3945 13.5914 10.7143 13.2716 10.7143 12.8771C10.7143 12.4826 10.3945 12.1628 9.99999 12.1628C9.6055 12.1628 9.28571 12.4826 9.28571 12.8771C9.28571 13.2716 9.6055 13.5914 9.99999 13.5914Z" fill="#171A1F"/>
</svg>
