<svg width="20" height="20" viewBox="0 0 20 20" fill="none" xmlns="http://www.w3.org/2000/svg">
<path d="M5.70854 14.8125L7.28568 16.0004C7.64568 16.2704 7.85711 16.6932 7.85711 17.1432V17.8575H2.14282L2.14282 17.1432C2.14282 16.6932 2.35425 16.2704 2.71425 16.0004L4.29139 14.8125" stroke="#171A1F" stroke-width="1.71429" stroke-miterlimit="10"/>
<path d="M5.0001 15.0001C4.21082 15.0001 3.57153 14.3609 3.57153 13.5716V12.8573C3.57153 12.068 4.21082 11.4287 5.0001 11.4287C5.78939 11.4287 6.42868 12.068 6.42868 12.8573V13.5716C6.42868 14.3609 5.78939 15.0001 5.0001 15.0001Z" stroke="#171A1F" stroke-width="1.71429" stroke-miterlimit="10" stroke-linecap="square"/>
<path d="M10.7085 5.52637L12.2857 6.71422C12.6457 6.98422 12.8571 7.40708 12.8571 7.85708V8.57137L7.14282 8.57137V7.85708C7.14282 7.40708 7.35425 6.98422 7.71425 6.71422L9.29139 5.52637" stroke="#171A1F" stroke-width="1.71429" stroke-miterlimit="10"/>
<path d="M10.0001 5.71401C9.21082 5.71401 8.57153 5.07472 8.57153 4.28544V3.57115C8.57153 2.78186 9.21082 2.14258 10.0001 2.14258C10.7894 2.14258 11.4287 2.78186 11.4287 3.57115V4.28544C11.4287 5.07472 10.7894 5.71401 10.0001 5.71401Z" stroke="#171A1F" stroke-width="1.71429" stroke-miterlimit="10" stroke-linecap="square"/>
<path d="M15.7085 14.8125L17.2857 16.0004C17.6457 16.2704 17.8571 16.6932 17.8571 17.1432V17.8575H12.1428V17.1432C12.1428 16.6932 12.3543 16.2704 12.7143 16.0004L14.2914 14.8125" stroke="#171A1F" stroke-width="1.71429" stroke-miterlimit="10"/>
<path d="M15.0001 15.0001C14.2108 15.0001 13.5715 14.3609 13.5715 13.5716V12.8573C13.5715 12.068 14.2108 11.4287 15.0001 11.4287C15.7894 11.4287 16.4287 12.068 16.4287 12.8573V13.5716C16.4287 14.3609 15.7894 15.0001 15.0001 15.0001Z" stroke="#171A1F" stroke-width="1.71429" stroke-miterlimit="10" stroke-linecap="square"/>
</svg>
