<svg width="20" height="20" viewBox="0 0 20 20" fill="none" xmlns="http://www.w3.org/2000/svg">
<path d="M5.70854 14.812L7.28568 15.9999C7.64568 16.2699 7.85711 16.6927 7.85711 17.1427V17.857H2.14282L2.14282 17.1427C2.14282 16.6927 2.35425 16.2699 2.71425 15.9999L4.29139 14.812" stroke="#171A1F" stroke-width="1.71429" stroke-miterlimit="10"/>
<path d="M4.99998 15.0001C4.2107 15.0001 3.57141 14.3609 3.57141 13.5716V12.8573C3.57141 12.068 4.2107 11.4287 4.99998 11.4287C5.78927 11.4287 6.42855 12.068 6.42855 12.8573V13.5716C6.42855 14.3609 5.78927 15.0001 4.99998 15.0001Z" stroke="#171A1F" stroke-width="1.71429" stroke-miterlimit="10" stroke-linecap="square"/>
<path d="M10.7085 5.52637L12.2857 6.71422C12.6457 6.98422 12.8571 7.40708 12.8571 7.85708V8.57137L7.14282 8.57137V7.85708C7.14282 7.40708 7.35425 6.98422 7.71425 6.71422L9.29139 5.52637" stroke="#171A1F" stroke-width="1.71429" stroke-miterlimit="10"/>
<path d="M9.99998 5.7145C9.2107 5.7145 8.57141 5.07521 8.57141 4.28592V3.57164C8.57141 2.78235 9.2107 2.14307 9.99998 2.14307C10.7893 2.14307 11.4286 2.78235 11.4286 3.57164V4.28592C11.4286 5.07521 10.7893 5.7145 9.99998 5.7145Z" stroke="#171A1F" stroke-width="1.71429" stroke-miterlimit="10" stroke-linecap="square"/>
<path d="M15.7085 14.812L17.2857 15.9999C17.6457 16.2699 17.8571 16.6927 17.8571 17.1427V17.857H12.1428V17.1427C12.1428 16.6927 12.3543 16.2699 12.7143 15.9999L14.2914 14.812" stroke="#171A1F" stroke-width="1.71429" stroke-miterlimit="10"/>
<path d="M15 15.0001C14.2107 15.0001 13.5714 14.3609 13.5714 13.5716V12.8573C13.5714 12.068 14.2107 11.4287 15 11.4287C15.7893 11.4287 16.4286 12.068 16.4286 12.8573V13.5716C16.4286 14.3609 15.7893 15.0001 15 15.0001Z" stroke="#171A1F" stroke-width="1.71429" stroke-miterlimit="10" stroke-linecap="square"/>
</svg>
