<svg width="20" height="21" viewBox="0 0 20 21" fill="none" xmlns="http://www.w3.org/2000/svg">
<path d="M9.99997 12.8329C11.1834 12.8329 12.1428 11.8735 12.1428 10.69C12.1428 9.50654 11.1834 8.54715 9.99997 8.54715C8.81651 8.54715 7.85712 9.50654 7.85712 10.69C7.85712 11.8735 8.81651 12.8329 9.99997 12.8329Z" stroke="#171A1F" stroke-width="1.71429" stroke-miterlimit="10" stroke-linecap="square"/>
<path d="M15.7143 10.69C15.7135 10.2785 15.6684 9.8683 15.58 9.46643L17.5186 7.99857L16.09 5.52428L13.845 6.47143C13.2371 5.91407 12.5155 5.49516 11.73 5.24357L11.4286 2.83286L8.57145 2.83286L8.27002 5.24357C7.48455 5.49516 6.76297 5.91407 6.15502 6.47143L3.91002 5.52428L2.48145 7.99857L4.42002 9.46643C4.24101 10.2723 4.24101 11.1077 4.42002 11.9136L2.48145 13.3814L3.91002 15.8557L6.15502 14.9086C6.76297 15.4659 7.48455 15.8848 8.27002 16.1364L8.57145 18.5471H11.4286L11.73 16.1364C12.5155 15.8848 13.2371 15.4659 13.845 14.9086L16.09 15.8557L17.5186 13.3814L15.58 11.9136C15.6684 11.5117 15.7135 11.1015 15.7143 10.69Z" stroke="#171A1F" stroke-width="1.71429" stroke-miterlimit="10" stroke-linecap="square"/>
</svg>
