<svg width="20" height="20" viewBox="0 0 20 20" fill="none" xmlns="http://www.w3.org/2000/svg">
<path d="M10 12.1426C11.1835 12.1426 12.1429 11.1833 12.1429 9.99979C12.1429 8.81632 11.1835 7.85693 10 7.85693C8.81657 7.85693 7.85718 8.81632 7.85718 9.99979C7.85718 11.1833 8.81657 12.1426 10 12.1426Z" stroke="#171A1F" stroke-width="1.71429" stroke-miterlimit="10" stroke-linecap="square"/>
<path d="M15.7143 10.0002C15.7135 9.58872 15.6684 9.17851 15.58 8.77664L17.5186 7.30878L16.09 4.8345L13.845 5.78164C13.2371 5.22428 12.5155 4.80537 11.73 4.55378L11.4286 2.14307L8.57145 2.14307L8.27002 4.55378C7.48455 4.80537 6.76297 5.22428 6.15502 5.78164L3.91002 4.8345L2.48145 7.30878L4.42002 8.77664C4.24101 9.58253 4.24101 10.4179 4.42002 11.2238L2.48145 12.6916L3.91002 15.1659L6.15502 14.2188C6.76297 14.7761 7.48455 15.195 8.27002 15.4466L8.57145 17.8574H11.4286L11.73 15.4466C12.5155 15.195 13.2371 14.7761 13.845 14.2188L16.09 15.1659L17.5186 12.6916L15.58 11.2238C15.6684 10.8219 15.7135 10.4117 15.7143 10.0002Z" stroke="#171A1F" stroke-width="1.71429" stroke-miterlimit="10" stroke-linecap="square"/>
</svg>
