<svg width="20" height="20" viewBox="0 0 20 20" fill="none" xmlns="http://www.w3.org/2000/svg">
<path d="M10 12.1431C11.1835 12.1431 12.1429 11.1837 12.1429 10.0003C12.1429 8.81681 11.1835 7.85742 10 7.85742C8.81657 7.85742 7.85718 8.81681 7.85718 10.0003C7.85718 11.1837 8.81657 12.1431 10 12.1431Z" stroke="#171A1F" stroke-width="1.71429" stroke-miterlimit="10" stroke-linecap="square"/>
<path d="M15.7143 9.99972C15.7135 9.58823 15.6684 9.17803 15.58 8.77615L17.5186 7.30829L16.09 4.83401L13.845 5.78115C13.2371 5.22379 12.5155 4.80488 11.73 4.55329L11.4286 2.14258L8.57145 2.14258L8.27002 4.55329C7.48455 4.80488 6.76297 5.22379 6.15502 5.78115L3.91002 4.83401L2.48145 7.30829L4.42002 8.77615C4.24101 9.58204 4.24101 10.4174 4.42002 11.2233L2.48145 12.6911L3.91002 15.1654L6.15502 14.2183C6.76297 14.7757 7.48455 15.1946 8.27002 15.4461L8.57145 17.8569H11.4286L11.73 15.4461C12.5155 15.1946 13.2371 14.7757 13.845 14.2183L16.09 15.1654L17.5186 12.6911L15.58 11.2233C15.6684 10.8214 15.7135 10.4112 15.7143 9.99972Z" stroke="#171A1F" stroke-width="1.71429" stroke-miterlimit="10" stroke-linecap="square"/>
</svg>
